<?xml version="1.0" encoding="UTF-8"?>
<!DOCTYPE svg PUBLIC "-//W3C//DTD SVG 1.1//EN" "http://www.w3.org/Graphics/SVG/1.1/DTD/svg11.dtd">
<svg version="1.1" xmlns="http://www.w3.org/2000/svg" xmlns:xlink="http://www.w3.org/1999/xlink" x="0" y="0" width="326" height="218" viewBox="0, 0, 326, 218">
  <g id="Layer_1" transform="translate(-8, -8)">
    <path d="M52.2,144 L84.6,144 L95.4,122.4 L117,165.6 L138.6,122.4 L160.2,165.6 L181.8,122.4 L203.4,165.6 L225,122.4 L246.6,165.6 L257.4,144 L289.8,144" fill-opacity="0" stroke="#000000" stroke-width="0.9" stroke-miterlimit="20" id="svg_1"/>
    <path d="M9,171 L52.2,171 L52.2,144" fill-opacity="0" stroke="#000000" stroke-width="0.9" stroke-miterlimit="20" id="svg_2"/>
    <path d="M289.8,144 L289.8,117 L333,117" fill-opacity="0" stroke="#000000" stroke-width="0.9" stroke-miterlimit="20" id="svg_3"/>
    <path d="M9,9 L333,9 L333,225 L9,225 z" fill-opacity="0" stroke="#FFFFFF" stroke-width="0.9" stroke-miterlimit="20" id="svg_6"/>
    <path d="M9,63 L52.2,63 L173,63 L173,206.1 L254.4,206.1" fill-opacity="0" stroke="#000000" stroke-width="0.9" stroke-miterlimit="20" id="svg_4"/>
    <path d="M238,220 L254.4,206.1 L237,193" fill-opacity="0" stroke="#000000" stroke-width="0.9" stroke-miterlimit="20" id="svg_5"/>
  </g>
</svg>
